<svg version="1.2" xmlns="http://www.w3.org/2000/svg" viewBox="0 0 50 53" width="50" height="53">
	<title>laravel-svg</title>
	<style>
		.s0 { fill: #38bdf8 } 
	</style>
	<path id="Layer" fill-rule="evenodd" class="s0" d="m49.6 12.6q0 0 0 0 0 0 0 0.1 0.1 0 0.1 0 0 0 0 0.1v10.9q0 0.2-0.1 0.3 0 0.1-0.1 0.1 0 0.1-0.1 0.2-0.1 0.1-0.1 0.1l-9.3 5.3v10.6c0 0.2-0.1 0.5-0.4 0.6l-19.2 11.1q0 0-0.1 0.1 0 0-0.1 0 0 0-0.1 0 0 0-0.1 0 0 0-0.1 0 0 0-0.1 0 0 0 0 0-0.1-0.1-0.2-0.1l-19.2-11.1q-0.1 0-0.2-0.1 0-0.1-0.1-0.1 0-0.1-0.1-0.2 0-0.1 0-0.3v-32.9q0-0.1 0-0.2 0 0 0.1 0 0-0.1 0-0.2 0 0 0.1 0 0-0.1 0-0.1 0.1-0.1 0.1-0.1 0.1 0 0.1-0.1l9.6-5.5q0.1 0 0.2-0.1 0.1 0 0.2 0 0.1 0 0.2 0 0.1 0.1 0.2 0.1l9.6 5.5q0.1 0.1 0.1 0.1 0.1 0 0.1 0.1 0 0 0.1 0.1 0 0 0 0 0 0.1 0.1 0.2 0 0 0 0 0 0.1 0 0.1 0 0 0 0 0 0.1 0 0.1 0 0 0 0v20.6l8-4.6v-10.5q0-0.1 0.1-0.2 0-0.1 0-0.1 0-0.1 0-0.1 0.1-0.1 0.1-0.1 0 0 0.1-0.1 0 0 0-0.1 0.1 0 0.1 0l9.6-5.6q0.1 0 0.2 0 0.1-0.1 0.2-0.1 0.1 0 0.3 0.1 0.1 0 0.1 0l9.7 5.6q0 0 0 0 0.1 0.1 0.1 0.1 0.1 0.1 0.1 0.1 0 0 0 0.1 0.1 0 0.1 0.1 0 0 0 0.1zm-1.5 10.7v-9.1l-3.4 1.9-4.7 2.7v9.1c0 0 8.1-4.6 8.1-4.6zm-9.7 16.5v-9.1l-4.5 2.6-13.1 7.4v9.2zm-36.8-31v31l17.6 10.2v-9.2l-9.2-5.2v-0.1q-0.1 0-0.1 0 0 0-0.1-0.1 0 0 0-0.1-0.1 0-0.1 0 0-0.1 0-0.1-0.1-0.1-0.1-0.1 0-0.1 0-0.2 0 0 0 0v-21.5l-4.7-2.7c0 0-3.3-1.9-3.3-1.9zm8.8-6q0 0 0 0zm-8 4.6l8 4.6 8-4.6c0 0-8-4.6-8-4.6zm12.2 24.1l4.6-2.6v-20.1l-3.4 1.9-4.6 2.7v20.1zm24.7-23.4l-8 4.6 8 4.7 8-4.7zm-0.8 10.6l-4.7-2.6-3.3-2v9.2l4.6 2.6 3.4 2zm-18.5 20.5l11.8-6.7 5.9-3.3-8-4.6-9.3 5.3-8.3 4.8z"/>
	<path id="Shape 1" class="s0" d="m9-7"/>
</svg>