<svg class="canvas" viewBox="0 0 1920 1080" preserveAspectRatio="xMaxYMid slice" xmlns="http://www.w3.org/2000/svg" version="1.1" xmlns:xlink="http://www.w3.org/1999/xlink" xmlns:svgjs="http://svgjs.dev/svgjs"><rect width="1920" height="1080" fill="hsl(227, 65%, 15%)"></rect><defs><linearGradient x1="0.5" y1="0" x2="0" y2="1" id="SvgjsLinearGradient1217"><stop stop-color="#283d8a" offset="0"></stop><stop stop-color="#110614" offset="0.1"></stop></linearGradient><linearGradient x1="0.5" y1="0" x2="0" y2="1" id="SvgjsLinearGradient1218"><stop stop-color="#28518a" offset="0"></stop><stop stop-color="#0e0614" offset="0.22857142857142856"></stop></linearGradient><linearGradient x1="0.5" y1="0" x2="0" y2="1" id="SvgjsLinearGradient1219"><stop stop-color="#283d8a" offset="0"></stop><stop stop-color="#110614" offset="0.3571428571428571"></stop></linearGradient><linearGradient x1="0.5" y1="0" x2="0" y2="1" id="SvgjsLinearGradient1220"><stop stop-color="#c0d5f2" offset="0"></stop><stop stop-color="#9942d7" offset="0.48571428571428565"></stop></linearGradient><linearGradient x1="0.5" y1="0" x2="0" y2="1" id="SvgjsLinearGradient1221"><stop stop-color="#d3c0f2" offset="0"></stop><stop stop-color="#d7429e" offset="0.6142857142857142"></stop></linearGradient><linearGradient x1="0.5" y1="0" x2="0" y2="1" id="SvgjsLinearGradient1222"><stop stop-color="#c0d5f2" offset="0"></stop><stop stop-color="#9942d7" offset="0.7428571428571429"></stop></linearGradient><linearGradient x1="0.5" y1="0" x2="0" y2="1" id="SvgjsLinearGradient1223"><stop stop-color="#c0cbf2" offset="0"></stop><stop stop-color="#b742d7" offset="0.8714285714285713"></stop></linearGradient></defs><path d="M0,-539.074882851686C85.52051714362743,-513.886062190741,350.6936328328225,-435.79681935837317,513.1231028617646,-387.94195888601604C675.5525728907066,-340.0870984136589,814.6546501234317,-294.8194775180116,974.5768201736522,-251.9457200175432C1134.4989902238726,-209.0719625170748,1315.0855931920296,-172.84455341084856,1472.6561231630876,-130.6994138832057C1630.2266531341456,-88.55427435556282,1845.4426871938479,-21.012304690272575,1920,0.9251171483140439L 1920 1080 L 0 1080 Z" fill="url(&quot;#SvgjsLinearGradient1217&quot;)"></path><path d="M0,-458.1930465932289C60.25522031340575,-443.6348332154183,231.8139370019148,-403.4423683201209,361.5313218804345,-370.84376632636526C491.2487067589542,-338.2451643326096,648.9091461138564,-302.080894487784,778.3043092711183,-262.60143463069494C907.6994724283802,-223.12197477360584,1016.3748621436329,-177.6257670810382,1137.9023008240056,-133.96700718383073C1259.4297395043782,-90.30824728662327,1377.119324824022,-38.99215439350293,1507.4689413533545,-0.6488752474502419C1637.818557882687,37.694403898602445,1851.2448235588924,79.96907720249611,1920,96.09266769248538L 1920 1080 L 0 1080 Z" fill="url(&quot;#SvgjsLinearGradient1218&quot;)"></path><path d="M0,-321.93380987604826C52.2032877620341,-306.29493007447456,222.9117280612395,-250.7578326877678,313.2197265722046,-228.10053106660598C403.5277250831697,-205.44322944544416,449.89656275950955,-205.53696655103207,541.8479910657904,-185.99000014907733C633.7994193720713,-166.4430337471226,773.0953691444577,-137.8826456991704,864.9282964098898,-110.8187326548776C956.7612236753218,-83.7548196105848,1003.3502239790624,-60.91025906418228,1092.8455546583828,-23.606521883320518C1182.340885337703,13.697215297541241,1314.0131161145273,87.44369374719125,1401.9002804858114,113.00369043029295C1489.7874448570956,138.56368711339465,1533.8185876337227,107.48113683777513,1620.1685408860874,129.7534582152897C1706.518494138452,152.02577959280427,1870.0280901476813,227.15692528203192,1920,246.63761869538035L 1920 1080 L 0 1080 Z" fill="url(&quot;#SvgjsLinearGradient1219&quot;)"></path><path d="M0,-179.90294342738753C66.12535961995611,-162.47949349666874,274.8161273134195,-107.9326813582996,396.7521577197367,-75.36224384307478C518.688188126054,-42.791806327849955,610.2131557568911,-24.795670592484264,731.6161824379034,15.519681663961435C853.0192091189157,55.835033920407135,996.5155114202971,126.97053711592025,1125.1703178058103,166.52986969559942C1253.8251241913235,206.08920227527858,1371.0734070519507,213.47162218634372,1503.5450207509823,252.87567714203638C1636.016634450014,292.27973209772904,1850.5908367918305,377.9411123818022,1920,402.95419942975536L 1920 1080 L 0 1080 Z" fill="url(&quot;#SvgjsLinearGradient1220&quot;)"></path><path d="M0,-24.5004893391503C48.359786143233606,-17.195872300177104,218.81053632832703,-6.218743519721194,290.15871685940164,19.32721289468886C361.50689739047624,44.87316930909891,353.9168182458756,108.71271962743961,428.0890831864475,128.77524914731C502.2613481270194,148.8377786671804,645.5526658644789,121.83341347270861,735.192306502833,139.70239001391127C824.8319471411872,157.5713665551139,880.398840873271,209.75818593911293,965.9269270165727,235.98910839452594C1051.4550131598744,262.22003084993895,1171.869345066402,256.65877836960186,1248.3608233626433,297.08792474638926C1324.8523016588845,337.51707112317666,1347.7376098877637,455.2826021542066,1424.8757967940205,478.56398665525035C1502.0139837002773,501.8453711562941,1628.6692442658543,421.09650156124235,1711.1899448001843,436.77623175265177C1793.7106453345143,452.4559619440612,1885.1983241333642,549.9980117951977,1920,572.642367803707L 1920 1080 L 0 1080 Z" fill="url(&quot;#SvgjsLinearGradient1221&quot;)"></path><path d="M0,111.87726087054561C39.9855026223367,131.59266365767314,155.5031328909388,198.85125354028955,239.91301573402023,230.16967759331072C324.3228985771017,261.4881016463319,401.3819178963929,268.12102198296793,506.45929705848874,299.78780518867273C611.5366762205846,331.45458839437754,775.151687199224,395.8961542318935,870.3772907065953,420.1703768275396C965.6028942139666,444.4445994231857,1001.1263311760762,421.8498265432988,1077.8129181027166,445.4331407625493C1154.499505029357,469.01645498179977,1242.2069397148596,523.3437325099112,1330.4968122664377,561.6702621430426C1418.7866848180158,599.996791776174,1509.3016221232588,648.4530568686583,1607.5521534121858,675.3923185613374C1705.8026847011129,702.3315802540166,1867.925358902031,715.3202466761537,1920,723.305832299117L 1920 1080 L 0 1080 Z" fill="url(&quot;#SvgjsLinearGradient1222&quot;)"></path><path d="M0,220.21254571419115C37.21255391144532,236.3137719264939,124.76656066841049,285.32373607550585,223.2753234686719,316.81990298800764C321.7840862689333,348.31606990050943,497.5082042148087,385.2088648723474,591.0525768015684,409.1895471892021C684.5969493883281,433.1702295060567,696.0627205061475,423.3220940091966,784.5415589892302,460.70399688913557C873.020397472313,498.08589976907456,1033.0870710490528,592.746692465984,1121.9256077000653,633.4809644688362C1210.7641443510777,674.2152364716884,1235.975451057618,676.99147384864,1317.5727788953047,705.109628906249C1399.1701067329914,733.227783963858,1511.1050378754019,778.7203610607851,1611.5095747261844,802.1898948144898C1711.914111576967,825.6594285681945,1868.5849291210307,838.6373419928124,1920,845.9268314284769L 1920 1080 L 0 1080 Z" fill="url(&quot;#SvgjsLinearGradient1223&quot;)"></path></svg>