<svg class="canvas" viewBox="0 0 1920 1080" preserveAspectRatio="xMaxYMid slice" xmlns="http://www.w3.org/2000/svg" version="1.1" xmlns:xlink="http://www.w3.org/1999/xlink" xmlns:svgjs="http://svgjs.dev/svgjs"><rect width="1920" height="1080" fill="hsl(158, 65%, 15%)"></rect><defs><linearGradient x1="0.5" y1="0" x2="0" y2="1" id="SvgjsLinearGradient1119"><stop stop-color="#28878a" offset="0"></stop><stop stop-color="#060614" offset="0.1"></stop></linearGradient><linearGradient x1="0.5" y1="0" x2="0" y2="1" id="SvgjsLinearGradient1120"><stop stop-color="#288a66" offset="0"></stop><stop stop-color="#060b14" offset="0.22857142857142856"></stop></linearGradient><linearGradient x1="0.5" y1="0" x2="0" y2="1" id="SvgjsLinearGradient1121"><stop stop-color="#288a53" offset="0"></stop><stop stop-color="#060e14" offset="0.3571428571428571"></stop></linearGradient><linearGradient x1="0.5" y1="0" x2="0" y2="1" id="SvgjsLinearGradient1122"><stop stop-color="#c0f2e9" offset="0"></stop><stop stop-color="#425bd7" offset="0.48571428571428565"></stop></linearGradient><linearGradient x1="0.5" y1="0" x2="0" y2="1" id="SvgjsLinearGradient1123"><stop stop-color="#c0f2e9" offset="0"></stop><stop stop-color="#425bd7" offset="0.6142857142857142"></stop></linearGradient><linearGradient x1="0.5" y1="0" x2="0" y2="1" id="SvgjsLinearGradient1124"><stop stop-color="#c0f2e9" offset="0"></stop><stop stop-color="#425bd7" offset="0.7428571428571429"></stop></linearGradient><linearGradient x1="0.5" y1="0" x2="0" y2="1" id="SvgjsLinearGradient1125"><stop stop-color="#c0f2df" offset="0"></stop><stop stop-color="#4278d7" offset="0.8714285714285713"></stop></linearGradient></defs><path d="M0,-554.9622289285625C51.26258725595398,-535.0461053398126,196.405659021509,-463.06769844421814,307.5755235357239,-435.4654873960628C418.7453880499388,-407.8632763479075,563.6891947671404,-417.644998044386,667.0191870852896,-389.3489626396306C770.3491794034387,-361.0529272348752,824.8861238981257,-299.01171007570116,927.5554774446186,-265.6892749675304C1030.2248309911117,-232.3668398593597,1164.9830159423796,-217.9384966906932,1283.0353083642476,-189.41435199060626C1401.0876007861157,-160.89020729051933,1529.7084500365347,-123.61976061068272,1635.8692319758268,-94.54440676700875C1742.0300139151188,-65.46905292333479,1872.6448719959712,-28.22592523497015,1920,-14.962228928562425L 1920 1080 L 0 1080 Z" fill="url(&quot;#SvgjsLinearGradient1119&quot;)"></path><path d="M0,-406.0421593489691C72.4604467084989,-393.9584789740616,316.0140276227734,-372.6016665958331,434.7626802509934,-333.5400770995242C553.5113328792135,-294.4784876032153,593.6170431837156,-220.85693502598943,712.49191576932,-171.67262237111558C831.3667883549244,-122.48830971624173,1012.9104807967502,-76.85683936804992,1148.0119157646202,-38.43420117028101C1283.1133507324903,-0.01156297251209537,1394.4358448706435,27.75024746432683,1523.1005255765401,58.86320681549787C1651.7652062824368,89.9761661666689,1853.85008759609,133.34683024987066,1920,148.24355493674523L 1920 1080 L 0 1080 Z" fill="url(&quot;#SvgjsLinearGradient1120&quot;)"></path><path d="M0,-285.738935655163C73.53809615200373,-263.2496424120663,279.94062871444265,-203.69942894349813,441.2285769120224,-150.80317619658268C602.5165251096021,-97.90692344966723,795.4049007643509,-22.63563950178694,967.7276891854784,31.638580826329623C1140.050477606606,85.91280115444619,1316.453255636367,132.97649375712734,1475.1653074387873,174.84214577211668C1633.8773592412076,216.70779778710602,1845.8608845731312,264.8341017255741,1920,282.8324929162656L 1920 1080 L 0 1080 Z" fill="url(&quot;#SvgjsLinearGradient1121&quot;)"></path><path d="M0,-123.55650625639717C50.228872535292965,-104.55422851876521,194.63854585544226,-46.84927760620175,301.3732352117578,-9.542839830605416C408.1079245680733,27.76359794499092,524.3292610379746,77.0669835143373,640.4081361378933,100.28212039718085C756.487011237812,123.4972572800244,894.9289001950691,100.35737366687928,997.8464858112702,129.74798146645588C1100.7640714274712,159.13858926603248,1153.6217346499348,238.70071310286627,1257.9136498350997,276.62576719464045C1362.2055650202647,314.5508212864146,1513.2502518947765,326.85249444941667,1623.59797692226,357.2983060171009C1733.9457019497434,387.74411758478516,1870.5996628203766,442.3002481701383,1920,459.30063660074575L 1920 1080 L 0 1080 Z" fill="url(&quot;#SvgjsLinearGradient1122&quot;)"></path><path d="M0,20.69751820378079C61.60438080677074,45.61676351216907,233.97714683778693,129.41215496528048,369.62628484062446,170.2129900541105C505.275422843462,211.0138251429405,689.2911113326255,224.16923978135654,813.8948280170251,265.5025287367608C938.4985447014247,306.83581769216505,994.5480218250398,378.4722108601061,1117.248584947022,418.212723786536C1239.9491480690042,457.9532367129659,1416.306304240089,470.6743310353234,1550.0982067489188,503.9456062953404C1683.8901092577485,537.2168815553574,1858.3497011248198,598.8579138380884,1920,617.840375346638L 1920 1080 L 0 1080 Z" fill="url(&quot;#SvgjsLinearGradient1123&quot;)"></path><path d="M0,117.40559415873774C56.998214442983276,138.17694018299247,231.32726857926355,202.45161999188355,341.98928665789964,242.03367030426608C452.65130473653574,281.6157206166486,556.0861493990595,329.09986516865723,663.9721084718165,354.897896033033C771.8580675445734,380.6959268974088,889.6346573422701,363.5115970744375,989.3050410944409,396.82185549052093C1088.9754248466115,430.1321139066044,1159.8873319905201,521.9567106000928,1261.994410984841,554.7594465295336C1364.1014899791617,587.5621824589745,1492.279916891172,564.6258178908697,1601.947515060365,593.6382710671656C1711.6151132295581,622.6507242434616,1866.9912525100608,706.3015165006186,1920,728.8341655873091L 1920 1080 L 0 1080 Z" fill="url(&quot;#SvgjsLinearGradient1124&quot;)"></path><path d="M0,280.2050001756578C56.10902847999438,292.6628532004929,235.6315743245313,314.212220401548,336.6541708799663,354.9521183246684C437.67676743540125,395.6920162477888,507.99930333319287,486.3210570271063,606.1355793326097,524.6443877143802C704.2718553320266,562.9677184016541,811.9137342997703,552.7051279199817,925.4718268764675,584.8921024483118C1039.0299194531647,617.0790769766419,1173.742483927571,685.9380708824266,1287.484134792793,717.7662348843605C1401.225785658015,749.5943988862945,1502.5024211999323,744.5022446256514,1607.9217320678001,775.8610864599153C1713.341042935668,807.2199282941792,1867.9869553446333,884.2429193182722,1920,905.9192858899436L 1920 1080 L 0 1080 Z" fill="url(&quot;#SvgjsLinearGradient1125&quot;)"></path></svg>