<?xml version="1.0" encoding="UTF-8" standalone="no"?>
<svg
   xmlns:dc="http://purl.org/dc/elements/1.1/"
   xmlns:cc="http://creativecommons.org/ns#"
   xmlns:rdf="http://www.w3.org/1999/02/22-rdf-syntax-ns#"
   xmlns:svg="http://www.w3.org/2000/svg"
   xmlns="http://www.w3.org/2000/svg"
   id="svg3607"
   version="1.1"
   viewBox="0 0 240 240">
  <metadata
     id="metadata3611">
    <rdf:RDF>
      <cc:Work
         rdf:about="">
        <dc:format>image/svg+xml</dc:format>
        <dc:type
           rdf:resource="http://purl.org/dc/dcmitype/StillImage" />
        <dc:title></dc:title>
      </cc:Work>
    </rdf:RDF>
  </metadata>
  <defs
     id="defs3597">
    <linearGradient
       y2="0.75"
       x2="0.4167"
       y1="0.1667"
       x1="0.6667"
       id="b">
      <stop
         id="stop3587"
         offset="0"
         stop-color="#37aee2" />
      <stop
         id="stop3589"
         offset="1"
         stop-color="#1e96c8" />
    </linearGradient>
  </defs>
  <circle
     id="circle3599"
     fill="url(#b)"
     r="120"
     cy="120"
     cx="120" />
  <path
     id="path61-5"
     d="m 55.470985,121.87226 c 11.967824,-6.59224 25.327461,-12.0946 37.81075,-17.62422 21.474855,-9.057811 43.035545,-17.958941 64.813505,-26.246163 4.2371,-1.411877 11.85039,-2.79247 12.5969,3.486543 -0.40896,8.888355 -2.09047,17.72476 -3.24378,26.5604 -2.92745,19.43171 -6.31125,38.79716 -9.61057,58.16427 -1.13697,6.45141 -9.2182,9.79107 -14.38964,5.66233 -12.42682,-8.39389 -24.9498,-16.70646 -37.21867,-25.29534 -4.0188,-4.08348 -0.29212,-9.94817 3.29703,-12.86377 10.23579,-10.08715 21.08981,-18.65661 30.79046,-29.26538 2.61667,-6.31865 -5.11484,-0.99354 -7.66497,0.63829 -14.01272,9.65653 -27.68209,19.90207 -42.455271,28.38789 -7.54625,4.15398 -16.341126,0.60412 -23.883896,-1.71376 -6.762958,-2.80017 -16.673029,-5.62131 -10.841848,-9.89109 z"
     style="fill:#ffffff;stroke:none;stroke-width:0.37795275;stroke-linecap:butt;stroke-linejoin:miter;stroke-miterlimit:4;stroke-dasharray:none;stroke-opacity:1" />
</svg>
